<?xml version="1.0" encoding="utf-8"?>
<!-- Generator: Adobe Illustrator 24.3.0, SVG Export Plug-In . SVG Version: 6.00 Build 0)  -->
<svg version="1.1" id="Calque_1" xmlns="http://www.w3.org/2000/svg" xmlns:xlink="http://www.w3.org/1999/xlink" x="0px" y="0px"
	 viewBox="0 0 24 24" style="enable-background:new 0 0 24 24;" xml:space="preserve">
<style type="text/css">
	.st0{fill:#0C0058;}
	.st1{fill:#FFFFFF;}
</style>
<g id="FAVICON" transform="translate(-410 -610)">
	<path id="Rectangle_343" class="st0" d="M414,610h16c2.2,0,4,1.8,4,4v16c0,2.2-1.8,4-4,4h-16c-2.2,0-4-1.8-4-4v-16
		C410,611.8,411.8,610,414,610z"/>
	<path id="Tracé_2017" class="st1" d="M425.1,621.7h3.8v6.4c-1.9,1.3-4.2,2-6.5,2c-4.9,0-8.5-3.3-8.5-8c0-4.7,3.6-8,8.6-8
		c2.6-0.1,5,0.9,6.7,2.8l-2.8,2.5c-0.9-1.1-2.3-1.7-3.7-1.7c-2.4,0.1-4.3,2.1-4.2,4.6c0.1,2.3,1.9,4.1,4.2,4.2
		c0.8,0,1.6-0.2,2.4-0.5L425.1,621.7z"/>
</g>
</svg>
